<svg width="297" height="50" viewBox="0 0 297 50" fill="none" xmlns="http://www.w3.org/2000/svg">
<rect width="297" height="50" rx="5" fill="#2AA9E0"/>
<path d="M256.167 17.5C255.369 18.0629 254.485 18.4934 253.55 18.775C253.048 18.1979 252.381 17.7889 251.639 17.6032C250.897 17.4176 250.116 17.4643 249.402 17.737C248.687 18.0097 248.074 18.4953 247.644 19.1281C247.215 19.7608 246.99 20.5102 247 21.275V22.1083C245.536 22.1463 244.085 21.8215 242.776 21.1628C241.467 20.5042 240.342 19.5322 239.5 18.3333C239.5 18.3333 236.167 25.8333 243.667 29.1666C241.951 30.3316 239.906 30.9157 237.833 30.8333C245.333 35 254.5 30.8333 254.5 21.25C254.499 21.0178 254.477 20.7863 254.433 20.5583C255.284 19.7195 255.884 18.6606 256.167 17.5Z" fill="white"/>
<path d="M51.2564 23.2898C50.8984 20.7045 48.9098 19.2045 46.3303 19.2045C43.2905 19.2045 41.0007 21.4205 41.0007 25.1818C41.0007 28.9375 43.2621 31.1591 46.3303 31.1591C49.0973 31.1591 50.9325 29.3693 51.2564 27.1477L49.1314 27.1364C48.8643 28.5 47.7507 29.267 46.3587 29.267C44.4723 29.267 43.12 27.8523 43.12 25.1818C43.12 22.5568 44.4609 21.0966 46.3643 21.0966C47.7791 21.0966 48.8871 21.8977 49.1314 23.2898H51.2564ZM56.9027 31.1705C59.4595 31.1705 61.0845 29.3693 61.0845 26.6705C61.0845 23.9659 59.4595 22.1591 56.9027 22.1591C54.3459 22.1591 52.7209 23.9659 52.7209 26.6705C52.7209 29.3693 54.3459 31.1705 56.9027 31.1705ZM56.9141 29.5227C55.4993 29.5227 54.8061 28.2614 54.8061 26.6648C54.8061 25.0682 55.4993 23.7898 56.9141 23.7898C58.3061 23.7898 58.9993 25.0682 58.9993 26.6648C58.9993 28.2614 58.3061 29.5227 56.9141 29.5227ZM62.8303 31H64.8871V25.6932C64.8871 24.6193 65.603 23.892 66.4893 23.892C67.3587 23.892 67.9553 24.4773 67.9553 25.375V31H69.9723V25.5568C69.9723 24.5739 70.5575 23.892 71.5518 23.892C72.3814 23.892 73.0405 24.3807 73.0405 25.4602V31H75.103V25.142C75.103 23.1932 73.978 22.1591 72.3757 22.1591C71.1087 22.1591 70.1428 22.7841 69.7564 23.7557H69.6655C69.3303 22.767 68.4837 22.1591 67.3075 22.1591C66.1371 22.1591 65.2621 22.7614 64.8984 23.7557H64.7962V22.2727H62.8303V31ZM77.1896 34.2727H79.2464V29.625H79.3317C79.6555 30.2614 80.3317 31.1534 81.8317 31.1534C83.8885 31.1534 85.4283 29.5227 85.4283 26.6477C85.4283 23.7386 83.843 22.1591 81.826 22.1591C80.2862 22.1591 79.6442 23.0852 79.3317 23.7159H79.2124V22.2727H77.1896V34.2727ZM79.2067 26.6364C79.2067 24.9432 79.9339 23.8466 81.2578 23.8466C82.6271 23.8466 83.3317 25.0114 83.3317 26.6364C83.3317 28.2727 82.6158 29.4659 81.2578 29.4659C79.9453 29.4659 79.2067 28.3295 79.2067 26.6364ZM89.701 31.1761C91.0703 31.1761 91.8885 30.5341 92.2635 29.8011H92.3317V31H94.3089V25.1591C94.3089 22.8523 92.4283 22.1591 90.7635 22.1591C88.9283 22.1591 87.5192 22.9773 87.0646 24.5682L88.9851 24.8409C89.1896 24.2443 89.7692 23.733 90.7749 23.733C91.7294 23.733 92.2521 24.2216 92.2521 25.0795V25.1136C92.2521 25.7045 91.6328 25.733 90.093 25.8977C88.3999 26.0795 86.7805 26.5852 86.7805 28.5511C86.7805 30.267 88.0362 31.1761 89.701 31.1761ZM90.2351 29.6648C89.3771 29.6648 88.7635 29.2727 88.7635 28.517C88.7635 27.7273 89.451 27.3977 90.3714 27.267C90.9112 27.1932 91.9908 27.0568 92.2578 26.8409V27.8693C92.2578 28.8409 91.4737 29.6648 90.2351 29.6648ZM96.3771 31H98.4339V25.8693C98.4339 24.7614 99.2692 23.9773 100.4 23.9773C100.746 23.9773 101.178 24.0398 101.354 24.0966V22.2045C101.167 22.1705 100.843 22.1477 100.616 22.1477C99.6158 22.1477 98.7805 22.7159 98.4624 23.7273H98.3714V22.2727H96.3771V31ZM107.548 22.2727H105.826V20.1818H103.769V22.2727H102.531V23.8636H103.769V28.7159C103.758 30.358 104.951 31.1648 106.496 31.1193C107.082 31.1023 107.485 30.9886 107.707 30.9148L107.36 29.3068C107.246 29.3352 107.013 29.3864 106.758 29.3864C106.241 29.3864 105.826 29.2045 105.826 28.375V23.8636H107.548V22.2727ZM109.268 31H111.325V22.2727H109.268V31ZM110.302 21.0341C110.955 21.0341 111.489 20.5341 111.489 19.9205C111.489 19.3011 110.955 18.8011 110.302 18.8011C109.643 18.8011 109.109 19.3011 109.109 19.9205C109.109 20.5341 109.643 21.0341 110.302 21.0341ZM115.496 19.3636H113.44V31H115.496V19.3636ZM119.668 25.8864C119.668 24.625 120.452 23.8977 121.555 23.8977C122.634 23.8977 123.271 24.5852 123.271 25.7614V31H125.327V25.4432C125.327 23.3352 124.134 22.1591 122.322 22.1591C120.981 22.1591 120.129 22.767 119.725 23.7557H119.623V19.3636H117.612V31H119.668V25.8864ZM129.935 31.1761C131.305 31.1761 132.123 30.5341 132.498 29.8011H132.566V31H134.543V25.1591C134.543 22.8523 132.663 22.1591 130.998 22.1591C129.163 22.1591 127.754 22.9773 127.299 24.5682L129.219 24.8409C129.424 24.2443 130.004 23.733 131.009 23.733C131.964 23.733 132.487 24.2216 132.487 25.0795V25.1136C132.487 25.7045 131.867 25.733 130.327 25.8977C128.634 26.0795 127.015 26.5852 127.015 28.5511C127.015 30.267 128.271 31.1761 129.935 31.1761ZM130.469 29.6648C129.612 29.6648 128.998 29.2727 128.998 28.517C128.998 27.7273 129.685 27.3977 130.606 27.267C131.146 27.1932 132.225 27.0568 132.492 26.8409V27.8693C132.492 28.8409 131.708 29.6648 130.469 29.6648ZM136.612 31H138.668V25.8693C138.668 24.7614 139.504 23.9773 140.634 23.9773C140.981 23.9773 141.413 24.0398 141.589 24.0966V22.2045C141.401 22.1705 141.077 22.1477 140.85 22.1477C139.85 22.1477 139.015 22.7159 138.697 23.7273H138.606V22.2727H136.612V31ZM148.981 25.8864C148.981 24.625 149.742 23.8977 150.827 23.8977C151.89 23.8977 152.526 24.5966 152.526 25.7614V31H154.583V25.4432C154.589 23.3523 153.396 22.1591 151.594 22.1591C150.288 22.1591 149.39 22.7841 148.992 23.7557H148.89V22.2727H146.924V31H148.981V25.8864ZM160.481 31.1705C163.038 31.1705 164.663 29.3693 164.663 26.6705C164.663 23.9659 163.038 22.1591 160.481 22.1591C157.924 22.1591 156.299 23.9659 156.299 26.6705C156.299 29.3693 157.924 31.1705 160.481 31.1705ZM160.492 29.5227C159.077 29.5227 158.384 28.2614 158.384 26.6648C158.384 25.0682 159.077 23.7898 160.492 23.7898C161.884 23.7898 162.577 25.0682 162.577 26.6648C162.577 28.2614 161.884 29.5227 160.492 29.5227ZM174.735 22.2727H173.013V20.1818H170.957V22.2727H169.718V23.8636H170.957V28.7159C170.945 30.358 172.138 31.1648 173.684 31.1193C174.269 31.1023 174.673 30.9886 174.894 30.9148L174.548 29.3068C174.434 29.3352 174.201 29.3864 173.945 29.3864C173.428 29.3864 173.013 29.2045 173.013 28.375V23.8636H174.735V22.2727ZM178.256 31H180.404L182.04 25.1023H182.16L183.796 31H185.938L188.41 22.2727H186.308L184.796 28.375H184.711L183.143 22.2727H181.069L179.501 28.4091H179.421L177.887 22.2727H175.79L178.256 31ZM189.846 31H191.903V22.2727H189.846V31ZM190.88 21.0341C191.533 21.0341 192.067 20.5341 192.067 19.9205C192.067 19.3011 191.533 18.8011 190.88 18.8011C190.221 18.8011 189.687 19.3011 189.687 19.9205C189.687 20.5341 190.221 21.0341 190.88 21.0341ZM198.376 22.2727H196.654V20.1818H194.597V22.2727H193.359V23.8636H194.597V28.7159C194.586 30.358 195.779 31.1648 197.325 31.1193C197.91 31.1023 198.313 30.9886 198.535 30.9148L198.188 29.3068C198.075 29.3352 197.842 29.3864 197.586 29.3864C197.069 29.3864 196.654 29.2045 196.654 28.375V23.8636H198.376V22.2727ZM204.454 22.2727H202.732V20.1818H200.675V22.2727H199.437V23.8636H200.675V28.7159C200.664 30.358 201.857 31.1648 203.403 31.1193C203.988 31.1023 204.391 30.9886 204.613 30.9148L204.266 29.3068C204.153 29.3352 203.92 29.3864 203.664 29.3864C203.147 29.3864 202.732 29.2045 202.732 28.375V23.8636H204.454V22.2727ZM209.944 31.1705C211.978 31.1705 213.376 30.1761 213.739 28.6591L211.819 28.4432C211.54 29.1818 210.859 29.5682 209.972 29.5682C208.643 29.5682 207.762 28.6932 207.745 27.1989H213.825V26.5682C213.825 23.5057 211.984 22.1591 209.836 22.1591C207.336 22.1591 205.705 23.9943 205.705 26.6875C205.705 29.4261 207.313 31.1705 209.944 31.1705ZM207.751 25.8125C207.813 24.6989 208.637 23.7614 209.864 23.7614C211.046 23.7614 211.842 24.625 211.853 25.8125H207.751ZM215.565 31H217.621V25.8693C217.621 24.7614 218.457 23.9773 219.587 23.9773C219.934 23.9773 220.366 24.0398 220.542 24.0966V22.2045C220.354 22.1705 220.031 22.1477 219.803 22.1477C218.803 22.1477 217.968 22.7159 217.65 23.7273H217.559V22.2727H215.565V31Z" fill="white"/>
</svg>
